<svg
  version="1.1"
  id="SweetieSweetieLogo"
  xmlns="http://www.w3.org/2000/svg"
  xmlns:xlink="http://www.w3.org/1999/xlink"
  viewBox="0 0 284.986 106.213"
  xml:space="preserve"
  lang="en"
>
   <title>Sweetie and Sweetie</title>
<g>
	<defs>
		<style type="text/css">
.sweetie {
  fill: #e35689;
}
.and {
  fill: #408a92;
}
      </style>

	<path
        id="R"
        fill="#E35689"
        d="M387.83,733.447v-2.133c2.566-0.104,4.431-0.382,5.593-0.833c1.162-0.45,1.959-1.282,2.394-2.497
		c0.434-1.214,0.65-3.156,0.65-5.827v-52.861c0-2.671-0.217-4.613-0.65-5.827c-0.435-1.214-1.231-2.047-2.394-2.498
		c-1.162-0.45-3.026-0.729-5.593-0.832v-2.133c2.982,0.208,7.318,0.312,13.007,0.312c2.774,0,5.836-0.034,9.184-0.104
		c3.347-0.069,5.645-0.104,6.894-0.104c5.549,0,10.25,0.807,14.1,2.42c3.851,1.612,6.746,3.815,8.689,6.607
		c1.941,2.792,2.913,5.957,2.913,9.495c0,2.775-0.65,5.576-1.951,8.402c-1.301,2.828-3.504,5.359-6.607,7.597
		c-3.104,2.237-7.154,3.737-12.148,4.5l1.274,0.21c3.127,0.523,5.624,1.317,7.494,2.383c1.869,1.065,3.356,2.521,4.461,4.372
		s1.997,4.312,2.677,7.384l2.893,10.833c0.584,2.185,1.043,3.898,1.374,5.141c0.332,1.242,0.818,2.145,1.461,2.707
		c0.642,0.562,1.448,0.842,2.42,0.842c1.179,0,2.149-0.304,2.913-0.91c0.763-0.606,1.734-1.656,2.914-3.148l1.612,1.197
		c-1.665,2.393-3.312,4.128-4.942,5.202c-1.631,1.075-3.683,1.613-6.156,1.613c-2.914,0-5.309-0.851-7.182-2.55
		c-1.873-1.698-3.295-4.699-4.266-9l-2.76-10.504c-0.961-3.651-1.713-6.509-2.254-8.569s-1.566-3.689-3.075-4.887
		c-1.509-1.196-3.6-1.795-6.27-1.795h-10.146v24.506c0,2.671,0.216,4.613,0.65,5.827c0.433,1.215,1.23,2.047,2.393,2.497
		c1.162,0.451,3.026,0.729,5.594,0.833v2.133c-3.261-0.208-7.771-0.312-13.527-0.312
		C395.357,733.135,390.813,733.239,387.83,733.447z M406.353,695.518h7.18c4.787,0,8.532-0.763,11.238-2.29
		c2.705-1.525,4.578-3.571,5.619-6.139c1.04-2.566,1.561-5.653,1.561-9.262c0-5.827-1.388-10.231-4.162-13.215
		c-2.775-2.982-7.284-4.475-13.527-4.475c-2.221,0-3.885,0.252-4.995,0.754c-1.11,0.504-1.873,1.397-2.289,2.68
		c-0.416,1.284-0.624,3.192-0.624,5.724V695.518z"
      />
	<path
        id="e"
        fill="#E35689"
        d="M456.872,733.447v-2.133c2.566-0.104,4.431-0.382,5.593-0.833c1.162-0.45,1.959-1.282,2.394-2.497
		c0.434-1.214,0.65-3.156,0.65-5.827v-42.195c0-2.671-0.217-4.613-0.65-5.827c-0.435-1.214-1.231-2.047-2.394-2.498
		c-1.162-0.45-3.026-0.729-5.593-0.832v-2.134c6.764,0.209,16.701,0.312,29.812,0.312c9.954,0,17.03-0.104,21.228-0.312
		c-0.486,4.267-0.729,8.1-0.729,11.499c0,2.775,0.104,4.978,0.312,6.607h-2.445c-0.382-3.954-1.05-7.058-2.003-9.313
		c-0.955-2.254-2.324-3.876-4.11-4.864c-1.787-0.988-4.154-1.482-7.103-1.482h-7.804c-2.567,0-4.432,0.199-5.594,0.598
		c-1.162,0.399-1.96,1.206-2.393,2.42c-0.435,1.214-0.65,3.156-0.65,5.827v19.822h8.845c2.254,0,3.997-0.58,5.229-1.742
		s2.056-2.445,2.472-3.851c0.416-1.404,0.798-3.165,1.145-5.281h2.394c-0.232,2.775-0.349,5.411-0.349,7.909l0.051,4.006
		c0,2.845,0.221,6.834,0.662,11.967h-2.445c-0.278-2.186-0.669-4.041-1.171-5.567c-0.503-1.525-1.388-2.792-2.653-3.798
		c-1.267-1.006-3.044-1.509-5.333-1.509h-8.845v20.239c0,2.671,0.216,4.604,0.65,5.801c0.433,1.197,1.23,2.003,2.393,2.42
		c1.162,0.416,3.026,0.624,5.594,0.624h7.804c3.503,0,6.296-0.563,8.377-1.691c2.081-1.126,3.659-2.965,4.734-5.515
		s1.821-6.078,2.237-10.588h2.445c-0.208,1.908-0.312,4.457-0.312,7.648c0,3.746,0.242,7.943,0.729,12.591
		c-4.614-0.208-12.401-0.312-23.361-0.312C473.573,733.135,463.636,733.239,456.872,733.447z"
      />
	<path
        id="n"
        fill="#E35689"
        d="M520.296,733.447v-2.133c2.462-0.104,4.292-0.46,5.489-1.067c1.196-0.606,2.02-1.604,2.471-2.991
		c0.451-1.387,0.677-3.451,0.677-6.191v-41.103c0-2.671-0.217-4.613-0.65-5.827c-0.435-1.214-1.231-2.047-2.394-2.498
		c-1.162-0.45-3.026-0.729-5.593-0.832v-2.134c2.323,0.209,5.619,0.312,9.886,0.312c3.919,0,7.196-0.104,9.833-0.312l33.975,47.295
		v-34.964c0-2.739-0.233-4.795-0.702-6.165c-0.468-1.37-1.379-2.358-2.731-2.966c-1.353-0.606-3.434-0.963-6.243-1.066v-2.134
		c2.531,0.209,6.156,0.312,10.874,0.312c4.266,0,7.561-0.104,9.885-0.312v2.134c-2.463,0.104-4.292,0.46-5.488,1.066
		c-1.197,0.607-2.021,1.604-2.472,2.991c-0.451,1.388-0.677,3.435-0.677,6.14v52.966h-2.445l-42.611-59.001v46.098
		c0,2.74,0.242,4.805,0.729,6.191c0.485,1.388,1.396,2.385,2.731,2.991c1.335,0.607,3.408,0.963,6.218,1.067v2.133
		c-2.533-0.208-6.157-0.312-10.874-0.312C525.949,733.135,522.655,733.239,520.296,733.447z"
      />
	<path
        id="o"
        fill="#E35689"
        d="M593.188,701.71c0-6.798,1.396-12.816,4.191-18.055c2.795-5.236,6.674-9.295,11.638-12.175
		c4.964-2.878,10.623-4.318,16.976-4.318c6.55,0,12.286,1.311,17.207,3.929c4.922,2.619,8.734,6.426,11.438,11.42
		c2.703,4.995,4.056,10.961,4.056,17.898c0,6.799-1.396,12.808-4.186,18.027c-2.79,5.221-6.672,9.279-11.646,12.175
		c-4.974,2.896-10.631,4.345-16.974,4.345c-6.562,0-12.297-1.31-17.209-3.928c-4.912-2.619-8.723-6.426-11.43-11.421
		C594.541,714.613,593.188,708.647,593.188,701.71z M603.854,701.293c0,6.313,0.996,11.881,2.987,16.702
		c1.992,4.821,4.695,8.532,8.108,11.134c3.412,2.602,7.196,3.902,11.354,3.902c4.33,0,8.142-1.361,11.433-4.085
		c3.291-2.722,5.829-6.521,7.613-11.394s2.677-10.449,2.677-16.728c0-6.312-0.997-11.88-2.988-16.701
		c-1.992-4.821-4.694-8.533-8.107-11.135c-3.412-2.601-7.197-3.901-11.354-3.901c-4.331,0-8.143,1.361-11.433,4.084
		c-3.292,2.724-5.83,6.521-7.613,11.395C604.745,689.439,603.854,695.015,603.854,701.293z"
      />
	<path
        id="i"
        fill="#E35689"
        d="M667.902,733.447v-2.133c2.566-0.104,4.431-0.382,5.593-0.833c1.162-0.45,1.959-1.282,2.394-2.497
		c0.434-1.214,0.65-3.156,0.65-5.827v-42.195c0-2.671-0.217-4.613-0.65-5.827c-0.435-1.214-1.231-2.047-2.394-2.498
		c-1.162-0.45-3.026-0.729-5.593-0.832v-2.134c2.947,0.209,7.492,0.312,13.632,0.312c5.757,0,10.267-0.104,13.527-0.312v2.134
		c-2.567,0.104-4.432,0.382-5.594,0.832c-1.162,0.451-1.96,1.284-2.393,2.498c-0.435,1.214-0.65,3.156-0.65,5.827v42.195
		c0,2.671,0.216,4.613,0.65,5.827c0.433,1.215,1.23,2.047,2.393,2.497c1.162,0.451,3.026,0.729,5.594,0.833v2.133
		c-3.261-0.208-7.771-0.312-13.527-0.312C675.428,733.135,670.884,733.239,667.902,733.447z"
      />
	<path
        id="r"
        fill="#E35689"
        d="M704.01,733.447v-2.133c2.566-0.104,4.431-0.382,5.593-0.833c1.162-0.45,1.959-1.282,2.394-2.497
		c0.434-1.214,0.65-3.156,0.65-5.827v-42.195c0-2.706-0.217-4.665-0.65-5.88c-0.435-1.214-1.223-2.037-2.367-2.471
		s-3.018-0.703-5.619-0.807v-2.134c2.947,0.209,7.284,0.312,13.007,0.312c2.602,0,5.472-0.034,8.611-0.104
		c3.139-0.069,5.28-0.104,6.425-0.104c5.308,0,9.808,0.694,13.502,2.081c3.694,1.388,6.469,3.287,8.324,5.697
		c1.855,2.411,2.784,5.177,2.784,8.299c0,2.602-0.669,5.125-2.003,7.57c-1.336,2.445-3.582,4.604-6.738,6.478
		s-7.319,3.14-12.486,3.798c1.245,0.07,2.457,0.191,3.634,0.364c3.773,0.59,6.759,1.735,8.957,3.437
		c2.198,1.7,3.746,4.442,4.647,8.226l2.341,9.678c0.611,2.495,1.247,4.253,1.907,5.275c0.659,1.021,1.527,1.532,2.603,1.532
		c1.769,0,3.729-1.214,5.879-3.642l1.457,1.404c-1.353,1.943-2.888,3.426-4.604,4.448c-1.717,1.023-3.807,1.535-6.27,1.535
		c-5.897,0-9.558-2.705-10.979-8.116l-3.276-13.319c-0.659-2.706-1.553-4.778-2.68-6.218c-1.127-1.438-2.506-2.428-4.136-2.966
		c-1.631-0.537-3.729-0.807-6.296-0.807h-6.087v18.627c0,2.671,0.216,4.613,0.65,5.827c0.433,1.215,1.23,2.047,2.393,2.497
		c1.162,0.451,3.026,0.729,5.594,0.833v2.133c-3.296-0.208-7.805-0.312-13.527-0.312
		C711.502,733.135,706.957,733.239,704.01,733.447z M722.532,701.397h7.18c4.267,0,7.596-0.65,9.989-1.951s4.041-3.069,4.943-5.307
		c0.901-2.237,1.353-4.934,1.353-8.091c0-5.133-1.293-8.957-3.876-11.473c-2.585-2.514-6.842-3.771-12.773-3.771
		c-1.908,0-3.339,0.252-4.292,0.754c-0.955,0.504-1.613,1.397-1.978,2.68c-0.364,1.284-0.546,3.191-0.546,5.724V701.397z"
      />


	</defs>
  <path
      fill="#E35689"
      d="M56.759,7.644c-6.83,1.64-11.26,6.31-13.94,12.43c-3.52-5.59-8.55-9.5-15.49-10.12
    c-13.39-1.21-17.91,11.89-10.31,24.1c7.26,11.65,22.97,27.92,29.19,30.34c0.08,0.1-0.03,0.26-0.06,0.25
    c-0.02-0.01-0.02-0.08,0.06-0.25c7.19-4.47,19.25-20.77,26.12-32.67C79.529,19.243,69.839,4.503,56.759,7.644z"
    />
  <path
      fill="#F3C7D7"
      d="M87.749,45.903c-3.96,0.96-6.54,3.67-8.09,7.22c-2.04-3.25-4.96-5.52-8.98-5.88
    c-7.78-0.69-10.4,6.9-5.99,13.99c4.21,6.76,13.33,16.2,16.94,17.61c0.05,0.06-0.01,0.15-0.03,0.15c-0.02-0.01-0.01-0.05,0.03-0.15
    c4.17-2.59,11.18-12.05,15.16-18.96C100.959,52.633,95.339,44.083,87.749,45.903z"
    />
  <path
      fill="#64C8D2"
      d="M24.539,42.253c-2.89,0.69-4.76,2.66-5.89,5.25c-1.48-2.37-3.61-4.01-6.53-4.28
    c-5.66-0.51-7.57,5.02-4.35,10.18c3.06,4.91,9.69,11.78,12.32,12.8c0.03,0.04-0.02,0.11-0.03,0.1c-0.01,0,0-0.03,0.03-0.1
    c3.03-1.89,8.12-8.77,11.02-13.79C34.139,47.153,30.049,40.923,24.539,42.253z"
    />
  <path
      fill="#F3C7D7"
      d="M46.259,84.673c-1.87,0.42-3.1,1.68-3.86,3.34c-0.94-1.55-2.3-2.64-4.19-2.84
    c-3.66-0.38-4.95,3.17-2.92,6.55c1.93,3.22,6.16,7.73,7.85,8.42c0.02,0.03-0.01,0.07-0.02,0.07c-0.01,0-0.01-0.02,0.02-0.07
    c1.98-1.19,5.35-5.59,7.28-8.81C52.439,87.943,49.859,83.874,46.259,84.673z"
    />
</g>
<text
    class="sweetie"
    font-size="36.0697"
    transform="matrix(1 0 0 1 110.4214 33.0933)"
  >Gabriela</text>
<text
    class="and"
    font-size="52.7849"
    transform="matrix(1 0 0 1 173.1885 76.2012)"
  >&amp;</text>
<text
    class="sweetie"
    font-size="36.0697"
    transform="matrix(1 0 0 1 129.7686 101.2329)"
  >Renoir</text>
</svg>
