<svg
  version="1.1"
  id="SweetieSweetieLogo"
  xmlns="http://www.w3.org/2000/svg"
  xmlns:xlink="http://www.w3.org/1999/xlink"
  viewBox="0 435.775 841.889 322"
  xml:space="preserve"
>
<title>Gabriela and Renoir</title>
<g>
	<path
      fill="#E35689"
      d="M167.674,460.972c-20.177,4.845-33.264,18.641-41.181,36.72c-10.398-16.514-25.258-28.064-45.76-29.896
		c-39.556-3.574-52.908,35.125-30.457,71.194c21.447,34.416,67.856,82.48,86.231,89.629c0.236,0.296-0.089,0.769-0.178,0.738
		c-0.059-0.029-0.059-0.236,0.178-0.738c21.24-13.205,56.867-61.357,77.162-96.512C234.94,495.237,206.315,451.693,167.674,460.972z
		"
    />
	<path
      fill="#F3C7D7"
      d="M259.223,573.995c-11.698,2.836-19.32,10.842-23.898,21.329c-6.026-9.602-14.653-16.307-26.528-17.37
		c-22.983-2.039-30.724,20.383-17.695,41.328c12.437,19.97,39.379,47.857,50.043,52.022c0.147,0.178-0.029,0.443-0.089,0.443
		c-0.059-0.029-0.029-0.148,0.089-0.443c12.318-7.651,33.027-35.598,44.785-56.011C298.247,593.877,281.645,568.619,259.223,573.995
		z"
    />
	<path
      fill="#64C8D2"
      d="M72.491,563.213c-8.537,2.038-14.062,7.857-17.399,15.509c-4.372-7.001-10.665-11.846-19.291-12.644
		c-16.721-1.507-22.362,14.83-12.851,30.073c9.04,14.505,28.626,34.8,36.396,37.812c0.089,0.118-0.06,0.325-0.089,0.296
		c-0.029,0,0-0.089,0.089-0.296c8.951-5.583,23.987-25.907,32.555-40.737C100.852,577.687,88.769,559.283,72.491,563.213z"
    />
	<path
      fill="#F3C7D7"
      d="M136.656,688.527c-5.524,1.24-9.157,4.963-11.402,9.867c-2.777-4.579-6.795-7.799-12.378-8.391
		c-10.812-1.122-14.623,9.365-8.626,19.351c5.701,9.512,18.197,22.835,23.189,24.873c0.06,0.089-0.029,0.207-0.059,0.207
		c-0.03,0-0.03-0.059,0.059-0.207c5.85-3.515,15.805-16.514,21.506-26.025C154.912,698.187,147.29,686.167,136.656,688.527z"
    />
</g>
<g title="Gabriela">
	<path
      fill="#E35689"
      d="M331.977,501.734c0-8.151,1.466-15.288,4.398-21.41c2.934-6.121,7.003-10.839,12.209-14.151
		s11.105-4.969,17.7-4.969c2.872,0,5.425,0.304,7.657,0.91c2.232,0.607,4.171,1.379,5.814,2.315s3.538,2.168,5.685,3.693
		c0.896,0.729,1.603,1.093,2.12,1.093c1.344,0,2.223-2.167,2.636-6.503h2.445c-0.277,4.613-0.416,12.781-0.416,24.505h-2.445
		c-0.623-3.814-1.297-6.945-2.022-9.391c-0.727-2.445-1.833-4.57-3.32-6.374c-2.074-2.566-4.755-4.596-8.039-6.087
		c-3.285-1.491-6.726-2.237-10.322-2.237c-4.677,0-8.781,1.526-12.314,4.578c-3.533,3.053-6.271,7.397-8.21,13.033
		c-1.939,5.638-2.909,12.236-2.909,19.797c0,8.533,0.908,15.522,2.728,20.968c1.818,5.446,4.59,9.479,8.313,12.097
		c3.724,2.619,8.495,3.929,14.315,3.929c4.261,0,7.95-1.11,11.067-3.33c1.281-0.866,2.113-1.699,2.494-2.497s0.571-1.907,0.571-3.33
		v-10.25c0-2.947-0.278-5.106-0.836-6.478c-0.558-1.37-1.569-2.307-3.032-2.81c-1.465-0.502-3.782-0.823-6.953-0.963v-2.133
		c3.509,0.243,8.528,0.364,15.06,0.364c4.983,0,8.67-0.121,11.059-0.364v2.133c-1.665,0.14-2.854,0.426-3.564,0.859
		s-1.196,1.24-1.456,2.419c-0.261,1.18-0.391,3.14-0.391,5.879v21.124h-2.133c-0.069-1.457-0.362-2.836-0.879-4.137
		c-0.518-1.301-1.188-1.95-2.016-1.95c-0.448,0-0.88,0.112-1.292,0.338c-0.414,0.226-1.138,0.72-2.171,1.482
		c-2.489,1.908-5.059,3.348-7.709,4.318c-2.649,0.971-5.619,1.457-8.91,1.457c-7.289,0-13.554-1.509-18.794-4.526
		s-9.24-7.37-11.999-13.06C333.356,516.389,331.977,509.608,331.977,501.734z"
    />
	<path
      fill="#E35689"
      d="M400.811,538.154v-2.133c1.873-0.485,3.503-1.569,4.891-3.252s2.671-3.894,3.851-6.634l23.517-53.277h1.718
		l24.922,56.347c1.941,4.405,4.404,6.678,7.388,6.816v2.133c-2.914-0.208-6.712-0.312-11.395-0.312
		c-6.105,0-10.666,0.104-13.684,0.312v-2.133c2.671-0.104,4.613-0.434,5.827-0.989c1.214-0.554,1.821-1.525,1.821-2.913
		c0-1.283-0.486-2.966-1.457-5.047l-5.358-12.123h-26.015l-3.59,7.961c-1.18,2.74-1.77,5.013-1.77,6.815
		c0,3.746,2.758,5.845,8.272,6.296v2.133c-2.116-0.208-5.342-0.312-9.677-0.312C405.736,537.842,402.65,537.946,400.811,538.154z
		 M417.773,512.816h24.142l-12.02-27.107L417.773,512.816z"
    />
	<path
      fill="#E35689"
      d="M471.258,538.154v-2.133c2.566-0.104,4.431-0.382,5.593-0.833c1.162-0.45,1.959-1.282,2.394-2.497
		c0.434-1.214,0.65-3.156,0.65-5.827v-42.195c0-2.706-0.217-4.665-0.65-5.88c-0.435-1.214-1.223-2.037-2.367-2.471
		s-3.018-0.703-5.619-0.807v-2.134c2.947,0.209,7.284,0.312,13.007,0.312c2.602,0,5.472-0.034,8.611-0.104
		c3.139-0.069,5.28-0.104,6.425-0.104c4.613,0,8.524,0.616,11.733,1.847c3.207,1.232,5.619,2.94,7.231,5.125
		c1.613,2.186,2.42,4.718,2.42,7.597c0,3.434-1.197,6.503-3.591,9.209c-2.393,2.705-6.243,4.752-11.55,6.14v0.208
		c7.422,0.937,12.729,2.957,15.921,6.062c3.19,3.104,4.786,6.772,4.786,11.004c0,3.434-0.98,6.469-2.939,9.104
		c-1.96,2.637-4.786,4.691-8.48,6.166s-8.057,2.211-13.085,2.211c-1.354,0-3.721-0.052-7.103-0.156
		c-3.382-0.104-6.772-0.156-10.172-0.156C478.646,537.842,474.24,537.946,471.258,538.154z M489.781,503.399h6.087
		c5.445,0,9.243-1.24,11.395-3.721c2.15-2.479,3.226-5.957,3.226-10.432c0-4.578-1.102-8.013-3.304-10.302
		c-2.203-2.289-5.732-3.434-10.588-3.434c-1.908,0-3.339,0.252-4.292,0.754c-0.955,0.504-1.613,1.397-1.978,2.68
		c-0.364,1.284-0.546,3.191-0.546,5.724V503.399z M489.781,526.864c0,2.567,0.182,4.457,0.546,5.671
		c0.364,1.215,1.022,2.047,1.978,2.497c0.953,0.451,2.419,0.677,4.396,0.677c6.485,0,11.255-1.301,14.308-3.902
		c3.052-2.602,4.578-6.451,4.578-11.55c0-4.926-1.422-8.663-4.266-11.213c-2.845-2.549-7.389-3.824-13.632-3.824h-7.908V526.864z"
    />
	<path
      fill="#E35689"
      d="M534.681,538.154v-2.133c2.566-0.104,4.431-0.382,5.593-0.833c1.162-0.45,1.959-1.282,2.394-2.497
		c0.434-1.214,0.65-3.156,0.65-5.827v-42.195c0-2.706-0.217-4.665-0.65-5.88c-0.435-1.214-1.223-2.037-2.367-2.471
		s-3.018-0.703-5.619-0.807v-2.134c2.947,0.209,7.284,0.312,13.007,0.312c2.602,0,5.472-0.034,8.611-0.104
		c3.139-0.069,5.28-0.104,6.425-0.104c5.308,0,9.808,0.694,13.502,2.081c3.694,1.388,6.469,3.287,8.324,5.697
		c1.855,2.411,2.784,5.177,2.784,8.299c0,2.602-0.669,5.125-2.003,7.57c-1.336,2.445-3.582,4.604-6.738,6.478
		s-7.319,3.14-12.486,3.798c1.245,0.07,2.457,0.191,3.634,0.364c3.773,0.59,6.759,1.735,8.957,3.437
		c2.198,1.7,3.746,4.442,4.647,8.226l2.341,9.678c0.611,2.495,1.247,4.253,1.907,5.275c0.659,1.021,1.527,1.532,2.603,1.532
		c1.769,0,3.729-1.214,5.879-3.642l1.457,1.404c-1.353,1.943-2.888,3.426-4.604,4.448c-1.717,1.023-3.807,1.535-6.27,1.535
		c-5.897,0-9.558-2.705-10.979-8.116l-3.276-13.319c-0.659-2.706-1.553-4.778-2.68-6.218c-1.127-1.438-2.506-2.428-4.136-2.966
		c-1.631-0.537-3.729-0.807-6.296-0.807h-6.087v18.627c0,2.671,0.216,4.613,0.65,5.827c0.433,1.215,1.23,2.047,2.393,2.497
		c1.162,0.451,3.026,0.729,5.594,0.833v2.133c-3.296-0.208-7.805-0.312-13.527-0.312
		C542.173,537.842,537.628,537.946,534.681,538.154z M553.203,506.104h7.18c4.267,0,7.596-0.65,9.989-1.951s4.041-3.069,4.943-5.307
		c0.901-2.237,1.353-4.934,1.353-8.091c0-5.133-1.293-8.957-3.876-11.473c-2.585-2.514-6.842-3.771-12.773-3.771
		c-1.908,0-3.339,0.252-4.292,0.754c-0.955,0.504-1.613,1.397-1.978,2.68c-0.364,1.284-0.546,3.191-0.546,5.724V506.104z"
    />
	<path
      fill="#E35689"
      d="M601.174,538.154v-2.133c2.566-0.104,4.431-0.382,5.593-0.833c1.162-0.45,1.959-1.282,2.394-2.497
		c0.434-1.214,0.65-3.156,0.65-5.827v-42.195c0-2.671-0.217-4.613-0.65-5.827c-0.435-1.214-1.231-2.047-2.394-2.498
		c-1.162-0.45-3.026-0.729-5.593-0.832v-2.134c2.947,0.209,7.492,0.312,13.632,0.312c5.757,0,10.267-0.104,13.527-0.312v2.134
		c-2.567,0.104-4.432,0.382-5.594,0.832c-1.162,0.451-1.96,1.284-2.393,2.498c-0.435,1.214-0.65,3.156-0.65,5.827v42.195
		c0,2.671,0.216,4.613,0.65,5.827c0.433,1.215,1.23,2.047,2.393,2.497c1.162,0.451,3.026,0.729,5.594,0.833v2.133
		c-3.261-0.208-7.771-0.312-13.527-0.312C608.7,537.842,604.156,537.946,601.174,538.154z"
    />
	<path
      fill="#E35689"
      d="M637.282,538.154v-2.133c2.566-0.104,4.431-0.382,5.593-0.833c1.162-0.45,1.959-1.282,2.394-2.497
		c0.434-1.214,0.65-3.156,0.65-5.827v-42.195c0-2.671-0.217-4.613-0.65-5.827c-0.435-1.214-1.231-2.047-2.394-2.498
		c-1.162-0.45-3.026-0.729-5.593-0.832v-2.134c6.764,0.209,16.701,0.312,29.812,0.312c9.954,0,17.03-0.104,21.228-0.312
		c-0.486,4.267-0.729,8.1-0.729,11.499c0,2.775,0.104,4.978,0.312,6.607h-2.445c-0.382-3.954-1.05-7.058-2.003-9.313
		c-0.955-2.254-2.324-3.876-4.11-4.864c-1.787-0.988-4.154-1.482-7.103-1.482h-7.804c-2.567,0-4.432,0.199-5.594,0.598
		c-1.162,0.399-1.96,1.206-2.393,2.42c-0.435,1.214-0.65,3.156-0.65,5.827v19.822h8.845c2.254,0,3.997-0.58,5.229-1.742
		s2.056-2.445,2.472-3.851c0.416-1.404,0.798-3.165,1.145-5.281h2.394c-0.232,2.775-0.349,5.411-0.349,7.909l0.051,4.006
		c0,2.845,0.221,6.834,0.662,11.967h-2.445c-0.278-2.186-0.669-4.041-1.171-5.567c-0.503-1.525-1.388-2.792-2.653-3.798
		c-1.267-1.006-3.044-1.509-5.333-1.509h-8.845v20.239c0,2.671,0.216,4.604,0.65,5.801c0.433,1.197,1.23,2.003,2.393,2.42
		c1.162,0.416,3.026,0.624,5.594,0.624h7.804c3.503,0,6.296-0.563,8.377-1.691c2.081-1.126,3.659-2.965,4.734-5.515
		s1.821-6.078,2.237-10.588h2.445c-0.208,1.908-0.312,4.457-0.312,7.648c0,3.746,0.242,7.943,0.729,12.591
		c-4.614-0.208-12.401-0.312-23.361-0.312C653.984,537.842,644.046,537.946,637.282,538.154z"
    />
	<path
      fill="#E35689"
      d="M700.705,538.154v-2.133c2.566-0.104,4.431-0.382,5.593-0.833c1.162-0.45,1.959-1.282,2.394-2.497
		c0.434-1.214,0.65-3.156,0.65-5.827v-42.195c0-2.671-0.217-4.613-0.65-5.827c-0.435-1.214-1.231-2.047-2.394-2.498
		c-1.162-0.45-3.026-0.729-5.593-0.832v-2.134c2.947,0.209,7.492,0.312,13.632,0.312c5.757,0,10.267-0.104,13.527-0.312v2.134
		c-2.567,0.104-4.432,0.382-5.594,0.832c-1.162,0.451-1.96,1.284-2.393,2.498c-0.435,1.214-0.65,3.156-0.65,5.827v42.195
		c0,2.671,0.216,4.604,0.65,5.801c0.433,1.197,1.23,2.003,2.393,2.42c1.162,0.416,3.026,0.624,5.594,0.624h6.712
		c4.925,0,8.748-1.448,11.472-4.345c2.723-2.896,4.379-7.743,4.969-14.542h2.445c-0.208,2.221-0.312,5.134-0.312,8.741
		c0,3.746,0.242,7.943,0.729,12.591c-4.614-0.208-12.401-0.312-23.361-0.312C717.406,537.842,707.469,537.946,700.705,538.154z"
    />
	<path
      fill="#E35689"
      d="M757,538.154v-2.133c1.873-0.485,3.503-1.569,4.891-3.252s2.671-3.894,3.851-6.634l23.517-53.277h1.718
		l24.922,56.347c1.941,4.405,4.404,6.678,7.388,6.816v2.133c-2.914-0.208-6.712-0.312-11.395-0.312
		c-6.105,0-10.666,0.104-13.684,0.312v-2.133c2.671-0.104,4.613-0.434,5.827-0.989c1.214-0.554,1.821-1.525,1.821-2.913
		c0-1.283-0.486-2.966-1.457-5.047l-5.358-12.123h-26.015l-3.59,7.961c-1.18,2.74-1.77,5.013-1.77,6.815
		c0,3.746,2.758,5.845,8.272,6.296v2.133c-2.116-0.208-5.342-0.312-9.677-0.312C761.925,537.842,758.839,537.946,757,538.154z
		 M773.962,512.816h24.142l-12.02-27.107L773.962,512.816z"
    />
</g>
<g title="and">
	<path
      fill="#408A92"
      d="M518.019,620.877c0-7.044,1.865-12.974,5.597-17.788c3.73-4.813,7.969-8.476,12.715-10.984
		c4.746-2.508,9.2-4.295,13.363-5.359c-11.777-4.655-17.665-11.184-17.665-19.585c0-4.287,1.459-7.976,4.378-11.064
		c2.919-3.088,6.751-5.41,11.497-6.968c4.746-1.556,9.81-2.335,15.19-2.335c3.846,0,7.01,0.267,9.488,0.799
		c2.479,0.533,4.707,1.359,6.682,2.475c6.325,3.148,9.489,7.361,9.489,12.64c0,2.03-0.56,3.82-1.676,5.368
		c-1.115,1.549-2.622,2.754-4.516,3.616c-1.896,0.864-3.934,1.295-6.114,1.295c-3.373,0-6.151-0.819-8.332-2.458
		c-2.181-1.64-3.271-4.022-3.271-7.149c0-2.622,0.947-4.979,2.842-7.072s4.348-3.392,7.359-3.896
		c-0.88-0.807-2.226-1.475-4.034-2.005c-1.808-0.529-3.788-0.794-5.938-0.794c-3.655,0-6.955,0.76-9.898,2.279
		c-2.944,1.521-5.279,3.812-7.005,6.876s-2.589,6.799-2.589,11.206c0,5.973,2.03,11.263,6.092,15.869
		c3.807-0.805,6.725-1.207,8.756-1.207c1.827,0,3.248,0.378,4.264,1.131c1.015,0.754,1.522,1.758,1.522,3.015
		c0,0.955-0.418,1.734-1.256,2.336c-0.838,0.604-1.892,0.904-3.16,0.904c-1.37,0-2.792-0.312-4.264-0.94
		c-1.473-0.629-2.729-1.257-3.769-1.885c-1.041-0.628-1.688-1.018-1.941-1.168c-5.28,2.686-9.354,6.018-12.221,9.995
		c-2.868,3.979-4.302,9.033-4.302,15.165c0,9.823,3.999,17.216,11.999,22.177c7.999,4.961,19.091,7.441,33.274,7.441
		c7.225,0,14.146-1.026,20.76-3.08c6.614-2.053,11.983-5.083,16.105-9.091c4.121-4.009,6.184-8.784,6.184-14.325
		c0-9.69-3.949-16.489-11.845-20.396c-3.018,0.899-6.484,1.932-10.4,3.097c-3.918,1.166-6.704,1.994-8.357,2.487
		c-5.646,1.68-10.315,3.07-14.014,4.172c-3.697,1.102-6.476,2.572-8.332,4.411c-1.858,1.841-2.786,4.057-2.786,6.648
		c0,2.541,0.815,4.782,2.449,6.727c1.634,1.943,3.744,3.446,6.333,4.509c2.587,1.063,5.238,1.594,7.953,1.594
		c1.082,0,2.293-0.151,3.633-0.453c1.34-0.303,2.217-0.655,2.629-1.059c-2.515-0.856-4.425-2.168-5.732-3.933
		c-1.308-1.764-1.961-3.856-1.961-6.276c0-3.175,1.156-5.67,3.469-7.485c2.313-1.814,5.28-2.722,8.901-2.722
		c3.672,0,6.575,0.965,8.712,2.893c2.137,1.93,3.207,4.492,3.207,7.69c0,4.671-2.075,8.198-6.223,10.583
		c-4.147,2.387-9.433,3.579-15.857,3.579c-4.287,0-8.171-0.741-11.649-2.225c-3.479-1.482-6.253-3.733-8.32-6.752
		c-2.067-3.017-3.102-6.725-3.102-11.124c0-7.767,2.97-13.934,8.908-18.502c5.939-4.568,14.593-7.969,25.964-10.203
		c1.964-0.53,5.439-1.471,10.425-2.819s9.271-2.507,12.858-3.477c8-1.956,13.91-4.089,17.732-6.396
		c3.822-2.309,5.734-5.243,5.734-8.807c0-2.714-0.858-5.171-2.571-7.373c-1.713-2.201-3.938-3.917-6.675-5.146
		c-2.737-1.229-5.59-1.845-8.557-1.845c-2.023,0-3.554,0.255-4.591,0.762c2.436,0.914,4.34,2.284,5.714,4.111
		c1.373,1.828,2.061,3.731,2.061,5.711c0,3.097-1.193,5.546-3.578,7.348c-2.387,1.802-5.445,2.703-9.179,2.703
		c-3.684,0-6.665-0.926-8.946-2.779c-2.282-1.853-3.423-4.378-3.423-7.576c0-4.061,1.803-7.258,5.407-9.594
		c3.604-2.334,8.443-3.502,14.513-3.502c4.909,0,9.241,0.88,13,2.641c3.758,1.761,6.686,4.312,8.782,7.653
		c2.096,3.342,3.145,7.283,3.145,11.824c0,7.511-2.683,13.393-8.048,17.645s-13.233,7.447-23.607,9.586l-3.231,1.007
		c4.771,2.064,8.442,5.431,11.01,10.102s3.852,10.051,3.852,16.14c0,7.259-2.256,13.794-6.767,19.605
		c-4.512,5.812-10.858,10.368-19.04,13.667c-8.183,3.299-17.575,4.949-28.178,4.949c-11.345,0-21.328-1.574-29.951-4.721
		s-15.291-7.652-20.005-13.515C520.376,635.609,518.019,628.745,518.019,620.877z"
    />
</g>
<g title="Renoir">
	<path
      fill="#E35689"
      d="M387.83,733.447v-2.133c2.566-0.104,4.431-0.382,5.593-0.833c1.162-0.45,1.959-1.282,2.394-2.497
		c0.434-1.214,0.65-3.156,0.65-5.827v-52.861c0-2.671-0.217-4.613-0.65-5.827c-0.435-1.214-1.231-2.047-2.394-2.498
		c-1.162-0.45-3.026-0.729-5.593-0.832v-2.133c2.982,0.208,7.318,0.312,13.007,0.312c2.774,0,5.836-0.034,9.184-0.104
		c3.347-0.069,5.645-0.104,6.894-0.104c5.549,0,10.25,0.807,14.1,2.42c3.851,1.612,6.746,3.815,8.689,6.607
		c1.941,2.792,2.913,5.957,2.913,9.495c0,2.775-0.65,5.576-1.951,8.402c-1.301,2.828-3.504,5.359-6.607,7.597
		c-3.104,2.237-7.154,3.737-12.148,4.5l1.274,0.21c3.127,0.523,5.624,1.317,7.494,2.383c1.869,1.065,3.356,2.521,4.461,4.372
		s1.997,4.312,2.677,7.384l2.893,10.833c0.584,2.185,1.043,3.898,1.374,5.141c0.332,1.242,0.818,2.145,1.461,2.707
		c0.642,0.562,1.448,0.842,2.42,0.842c1.179,0,2.149-0.304,2.913-0.91c0.763-0.606,1.734-1.656,2.914-3.148l1.612,1.197
		c-1.665,2.393-3.312,4.128-4.942,5.202c-1.631,1.075-3.683,1.613-6.156,1.613c-2.914,0-5.309-0.851-7.182-2.55
		c-1.873-1.698-3.295-4.699-4.266-9l-2.76-10.504c-0.961-3.651-1.713-6.509-2.254-8.569s-1.566-3.689-3.075-4.887
		c-1.509-1.196-3.6-1.795-6.27-1.795h-10.146v24.506c0,2.671,0.216,4.613,0.65,5.827c0.433,1.215,1.23,2.047,2.393,2.497
		c1.162,0.451,3.026,0.729,5.594,0.833v2.133c-3.261-0.208-7.771-0.312-13.527-0.312
		C395.357,733.135,390.813,733.239,387.83,733.447z M406.353,695.518h7.18c4.787,0,8.532-0.763,11.238-2.29
		c2.705-1.525,4.578-3.571,5.619-6.139c1.04-2.566,1.561-5.653,1.561-9.262c0-5.827-1.388-10.231-4.162-13.215
		c-2.775-2.982-7.284-4.475-13.527-4.475c-2.221,0-3.885,0.252-4.995,0.754c-1.11,0.504-1.873,1.397-2.289,2.68
		c-0.416,1.284-0.624,3.192-0.624,5.724V695.518z"
    />
	<path
      fill="#E35689"
      d="M456.872,733.447v-2.133c2.566-0.104,4.431-0.382,5.593-0.833c1.162-0.45,1.959-1.282,2.394-2.497
		c0.434-1.214,0.65-3.156,0.65-5.827v-42.195c0-2.671-0.217-4.613-0.65-5.827c-0.435-1.214-1.231-2.047-2.394-2.498
		c-1.162-0.45-3.026-0.729-5.593-0.832v-2.134c6.764,0.209,16.701,0.312,29.812,0.312c9.954,0,17.03-0.104,21.228-0.312
		c-0.486,4.267-0.729,8.1-0.729,11.499c0,2.775,0.104,4.978,0.312,6.607h-2.445c-0.382-3.954-1.05-7.058-2.003-9.313
		c-0.955-2.254-2.324-3.876-4.11-4.864c-1.787-0.988-4.154-1.482-7.103-1.482h-7.804c-2.567,0-4.432,0.199-5.594,0.598
		c-1.162,0.399-1.96,1.206-2.393,2.42c-0.435,1.214-0.65,3.156-0.65,5.827v19.822h8.845c2.254,0,3.997-0.58,5.229-1.742
		s2.056-2.445,2.472-3.851c0.416-1.404,0.798-3.165,1.145-5.281h2.394c-0.232,2.775-0.349,5.411-0.349,7.909l0.051,4.006
		c0,2.845,0.221,6.834,0.662,11.967h-2.445c-0.278-2.186-0.669-4.041-1.171-5.567c-0.503-1.525-1.388-2.792-2.653-3.798
		c-1.267-1.006-3.044-1.509-5.333-1.509h-8.845v20.239c0,2.671,0.216,4.604,0.65,5.801c0.433,1.197,1.23,2.003,2.393,2.42
		c1.162,0.416,3.026,0.624,5.594,0.624h7.804c3.503,0,6.296-0.563,8.377-1.691c2.081-1.126,3.659-2.965,4.734-5.515
		s1.821-6.078,2.237-10.588h2.445c-0.208,1.908-0.312,4.457-0.312,7.648c0,3.746,0.242,7.943,0.729,12.591
		c-4.614-0.208-12.401-0.312-23.361-0.312C473.573,733.135,463.636,733.239,456.872,733.447z"
    />
	<path
      fill="#E35689"
      d="M520.296,733.447v-2.133c2.462-0.104,4.292-0.46,5.489-1.067c1.196-0.606,2.02-1.604,2.471-2.991
		c0.451-1.387,0.677-3.451,0.677-6.191v-41.103c0-2.671-0.217-4.613-0.65-5.827c-0.435-1.214-1.231-2.047-2.394-2.498
		c-1.162-0.45-3.026-0.729-5.593-0.832v-2.134c2.323,0.209,5.619,0.312,9.886,0.312c3.919,0,7.196-0.104,9.833-0.312l33.975,47.295
		v-34.964c0-2.739-0.233-4.795-0.702-6.165c-0.468-1.37-1.379-2.358-2.731-2.966c-1.353-0.606-3.434-0.963-6.243-1.066v-2.134
		c2.531,0.209,6.156,0.312,10.874,0.312c4.266,0,7.561-0.104,9.885-0.312v2.134c-2.463,0.104-4.292,0.46-5.488,1.066
		c-1.197,0.607-2.021,1.604-2.472,2.991c-0.451,1.388-0.677,3.435-0.677,6.14v52.966h-2.445l-42.611-59.001v46.098
		c0,2.74,0.242,4.805,0.729,6.191c0.485,1.388,1.396,2.385,2.731,2.991c1.335,0.607,3.408,0.963,6.218,1.067v2.133
		c-2.533-0.208-6.157-0.312-10.874-0.312C525.949,733.135,522.655,733.239,520.296,733.447z"
    />
	<path
      fill="#E35689"
      d="M593.188,701.71c0-6.798,1.396-12.816,4.191-18.055c2.795-5.236,6.674-9.295,11.638-12.175
		c4.964-2.878,10.623-4.318,16.976-4.318c6.55,0,12.286,1.311,17.207,3.929c4.922,2.619,8.734,6.426,11.438,11.42
		c2.703,4.995,4.056,10.961,4.056,17.898c0,6.799-1.396,12.808-4.186,18.027c-2.79,5.221-6.672,9.279-11.646,12.175
		c-4.974,2.896-10.631,4.345-16.974,4.345c-6.562,0-12.297-1.31-17.209-3.928c-4.912-2.619-8.723-6.426-11.43-11.421
		C594.541,714.613,593.188,708.647,593.188,701.71z M603.854,701.293c0,6.313,0.996,11.881,2.987,16.702
		c1.992,4.821,4.695,8.532,8.108,11.134c3.412,2.602,7.196,3.902,11.354,3.902c4.33,0,8.142-1.361,11.433-4.085
		c3.291-2.722,5.829-6.521,7.613-11.394s2.677-10.449,2.677-16.728c0-6.312-0.997-11.88-2.988-16.701
		c-1.992-4.821-4.694-8.533-8.107-11.135c-3.412-2.601-7.197-3.901-11.354-3.901c-4.331,0-8.143,1.361-11.433,4.084
		c-3.292,2.724-5.83,6.521-7.613,11.395C604.745,689.439,603.854,695.015,603.854,701.293z"
    />
	<path
      fill="#E35689"
      d="M667.902,733.447v-2.133c2.566-0.104,4.431-0.382,5.593-0.833c1.162-0.45,1.959-1.282,2.394-2.497
		c0.434-1.214,0.65-3.156,0.65-5.827v-42.195c0-2.671-0.217-4.613-0.65-5.827c-0.435-1.214-1.231-2.047-2.394-2.498
		c-1.162-0.45-3.026-0.729-5.593-0.832v-2.134c2.947,0.209,7.492,0.312,13.632,0.312c5.757,0,10.267-0.104,13.527-0.312v2.134
		c-2.567,0.104-4.432,0.382-5.594,0.832c-1.162,0.451-1.96,1.284-2.393,2.498c-0.435,1.214-0.65,3.156-0.65,5.827v42.195
		c0,2.671,0.216,4.613,0.65,5.827c0.433,1.215,1.23,2.047,2.393,2.497c1.162,0.451,3.026,0.729,5.594,0.833v2.133
		c-3.261-0.208-7.771-0.312-13.527-0.312C675.428,733.135,670.884,733.239,667.902,733.447z"
    />
	<path
      fill="#E35689"
      d="M704.01,733.447v-2.133c2.566-0.104,4.431-0.382,5.593-0.833c1.162-0.45,1.959-1.282,2.394-2.497
		c0.434-1.214,0.65-3.156,0.65-5.827v-42.195c0-2.706-0.217-4.665-0.65-5.88c-0.435-1.214-1.223-2.037-2.367-2.471
		s-3.018-0.703-5.619-0.807v-2.134c2.947,0.209,7.284,0.312,13.007,0.312c2.602,0,5.472-0.034,8.611-0.104
		c3.139-0.069,5.28-0.104,6.425-0.104c5.308,0,9.808,0.694,13.502,2.081c3.694,1.388,6.469,3.287,8.324,5.697
		c1.855,2.411,2.784,5.177,2.784,8.299c0,2.602-0.669,5.125-2.003,7.57c-1.336,2.445-3.582,4.604-6.738,6.478
		s-7.319,3.14-12.486,3.798c1.245,0.07,2.457,0.191,3.634,0.364c3.773,0.59,6.759,1.735,8.957,3.437
		c2.198,1.7,3.746,4.442,4.647,8.226l2.341,9.678c0.611,2.495,1.247,4.253,1.907,5.275c0.659,1.021,1.527,1.532,2.603,1.532
		c1.769,0,3.729-1.214,5.879-3.642l1.457,1.404c-1.353,1.943-2.888,3.426-4.604,4.448c-1.717,1.023-3.807,1.535-6.27,1.535
		c-5.897,0-9.558-2.705-10.979-8.116l-3.276-13.319c-0.659-2.706-1.553-4.778-2.68-6.218c-1.127-1.438-2.506-2.428-4.136-2.966
		c-1.631-0.537-3.729-0.807-6.296-0.807h-6.087v18.627c0,2.671,0.216,4.613,0.65,5.827c0.433,1.215,1.23,2.047,2.393,2.497
		c1.162,0.451,3.026,0.729,5.594,0.833v2.133c-3.296-0.208-7.805-0.312-13.527-0.312
		C711.502,733.135,706.957,733.239,704.01,733.447z M722.532,701.397h7.18c4.267,0,7.596-0.65,9.989-1.951s4.041-3.069,4.943-5.307
		c0.901-2.237,1.353-4.934,1.353-8.091c0-5.133-1.293-8.957-3.876-11.473c-2.585-2.514-6.842-3.771-12.773-3.771
		c-1.908,0-3.339,0.252-4.292,0.754c-0.955,0.504-1.613,1.397-1.978,2.68c-0.364,1.284-0.546,3.191-0.546,5.724V701.397z"
    />
</g>
</svg>
