<svg xmlns="http://www.w3.org/2000/svg" width="1030" height="207">
  <defs/>
  <g fill="none" fill-rule="nonzero">
    <path fill="#E95420" d="M122.487 117.862a4.844 4.844 0 014.845 4.844 4.842 4.842 0 01-9.683 0 4.842 4.842 0 014.838-4.839v-.005zm27.193-14.607h-40.664l-58.59-38.717 2.43-5.852 44.13 9.064.133-33.46 22.482 26.087 36.55-39.727 5.432 3.223-17.766 52.365 53.532-15.477C181.114 24.978 145.044.027 103.255.027 46.325.028.005 46.35.005 103.287c-.002 31.055 13.777 58.952 35.542 77.891v-19.713a9.675 9.675 0 019.68-9.677c5.347 0 9.681 4.332 9.681 9.677v33.04a103.056 103.056 0 006.456 3.148v-36.188a9.673 9.673 0 019.678-9.677 9.677 9.677 0 019.677 9.677v42.6c2.129.476 4.284.886 6.456 1.228v-43.828c0-5.345 4.337-9.677 9.683-9.677a9.677 9.677 0 019.678 9.677v44.927c0 .037-.006.07-.006.101 2.172-.07 4.322-.203 6.456-.405v-83.35c0-5.346 4.337-9.678 9.683-9.678s9.678 4.338 9.678 9.678v79.631c42.819-12.596 74.168-52.24 74.168-99.082 0-11.903-2.033-23.341-5.757-33.99l-51.083 33.958h.005z"/>
    <path fill="#000" d="M300 182.4c-8 0-15.067-1.267-21.2-3.8-6.133-2.533-11.233-6.167-15.3-10.9-4.067-4.733-7.167-10.4-9.3-17-2.133-6.6-3.2-13.9-3.2-21.9 0-8.133 1.1-15.533 3.3-22.2 2.2-6.667 5.367-12.4 9.5-17.2 4.133-4.8 9.133-8.5 15-11.1 5.867-2.6 12.467-3.9 19.8-3.9 5.6 0 10.833.467 15.7 1.4 4.867.933 8.633 2.133 11.3 3.6l-3.4 11.2c-2.667-1.333-5.667-2.4-9-3.2-3.333-.8-7.8-1.2-13.4-1.2-11.467 0-20.167 3.7-26.1 11.1-5.933 7.4-8.9 17.9-8.9 31.5 0 6.133.667 11.767 2 16.9 1.333 5.133 3.5 9.533 6.5 13.2s6.867 6.533 11.6 8.6c4.733 2.067 10.5 3.1 17.3 3.1 5.6 0 10.3-.633 14.1-1.9 3.8-1.267 6.567-2.367 8.3-3.3l2.8 11.2c-2.4 1.333-6.167 2.633-11.3 3.9-5.133 1.267-10.5 1.9-16.1 1.9zm70.9-.4c-4.4-.133-8.233-.7-11.5-1.7-3.267-1-6-2.533-8.2-4.6-2.2-2.067-3.867-4.733-5-8-1.133-3.267-1.7-7.367-1.7-12.3v-128l13-2.4v130c0 3.2.3 5.767.9 7.7.6 1.933 1.5 3.467 2.7 4.6 1.2 1.133 2.767 1.967 4.7 2.5 1.933.533 4.233 1 6.9 1.4l-1.8 10.8zm108.5-53.4c0 8.133-1.167 15.533-3.5 22.2s-5.6 12.333-9.8 17a44.63 44.63 0 01-14.9 10.9c-5.733 2.6-12.067 3.9-19 3.9s-13.267-1.3-19-3.9a44.63 44.63 0 01-14.9-10.9c-4.2-4.667-7.467-10.333-9.8-17-2.333-6.667-3.5-14.067-3.5-22.2s1.167-15.533 3.5-22.2 5.6-12.367 9.8-17.1c4.2-4.733 9.167-8.4 14.9-11 5.733-2.6 12.067-3.9 19-3.9s13.267 1.3 19 3.9c5.733 2.6 10.7 6.267 14.9 11 4.2 4.733 7.467 10.433 9.8 17.1 2.333 6.667 3.5 14.067 3.5 22.2zm-13.8 0c0-12.933-3-23.233-9-30.9-6-7.667-14.133-11.5-24.4-11.5s-18.4 3.833-24.4 11.5-9 17.967-9 30.9 3 23.2 9 30.8c6 7.6 14.133 11.4 24.4 11.4s18.4-3.8 24.4-11.4c6-7.6 9-17.867 9-30.8zm116.9 48c-3.867 1.067-9.067 2.267-15.6 3.6-6.533 1.333-14.533 2-24 2-7.733 0-14.2-1.133-19.4-3.4-5.2-2.267-9.4-5.467-12.6-9.6-3.2-4.133-5.5-9.133-6.9-15-1.4-5.867-2.1-12.333-2.1-19.4v-58h13v53.8c0 7.333.533 13.533 1.6 18.6 1.067 5.067 2.8 9.167 5.2 12.3 2.4 3.133 5.5 5.4 9.3 6.8 3.8 1.4 8.433 2.1 13.9 2.1 6.133 0 11.467-.333 16-1 4.533-.667 7.4-1.267 8.6-1.8V76.8h13v99.8zm112.1.4c-3.867 1.333-8.8 2.6-14.8 3.8-6 1.2-13.6 1.8-22.8 1.8-7.6 0-14.5-1.233-20.7-3.7-6.2-2.467-11.533-6.033-16-10.7-4.467-4.667-7.933-10.333-10.4-17-2.467-6.667-3.7-14.2-3.7-22.6 0-7.867 1.033-15.1 3.1-21.7s5.1-12.3 9.1-17.1c4-4.8 8.9-8.533 14.7-11.2 5.8-2.667 12.433-4 19.9-4 6.8 0 12.7.967 17.7 2.9 5 1.933 8.633 3.767 10.9 5.5V27.4l13-2.4v152zm-13-81.4c-1.2-.933-2.7-1.933-4.5-3-1.8-1.067-3.9-2.067-6.3-3-2.4-.933-5-1.7-7.8-2.3-2.8-.6-5.733-.9-8.8-.9-6.4 0-11.767 1.133-16.1 3.4-4.333 2.267-7.833 5.3-10.5 9.1s-4.6 8.267-5.8 13.4c-1.2 5.133-1.8 10.567-1.8 16.3 0 13.6 3.4 24.033 10.2 31.3 6.8 7.267 15.8 10.9 27 10.9 6.4 0 11.567-.3 15.5-.9 3.933-.6 6.9-1.233 8.9-1.9V95.6zm31.3 20.4h45.2v12.6h-45.2V116zm76.5 64.2h-13V76.8h13v103.4zm3-134.6c0 3.067-.933 5.5-2.8 7.3-1.867 1.8-4.133 2.7-6.8 2.7s-4.933-.9-6.8-2.7c-1.867-1.8-2.8-4.233-2.8-7.3s.933-5.5 2.8-7.3c1.867-1.8 4.133-2.7 6.8-2.7s4.933.9 6.8 2.7c1.867 1.8 2.8 4.233 2.8 7.3zm26.9 34.8c3.867-1.067 9.067-2.267 15.6-3.6 6.533-1.333 14.533-2 24-2 7.867 0 14.433 1.133 19.7 3.4 5.267 2.267 9.467 5.5 12.6 9.7 3.133 4.2 5.367 9.233 6.7 15.1 1.333 5.867 2 12.333 2 19.4v57.8h-13v-53.6c0-7.333-.5-13.533-1.5-18.6-1-5.067-2.667-9.2-5-12.4-2.333-3.2-5.4-5.5-9.2-6.9-3.8-1.4-8.567-2.1-14.3-2.1-6.133 0-11.433.333-15.9 1-4.467.667-7.367 1.267-8.7 1.8v90.8h-13V80.4zm122.3 99.8h-13V76.8h13v103.4zm3-134.6c0 3.067-.933 5.5-2.8 7.3-1.867 1.8-4.133 2.7-6.8 2.7s-4.933-.9-6.8-2.7c-1.867-1.8-2.8-4.233-2.8-7.3s.933-5.5 2.8-7.3c1.867-1.8 4.133-2.7 6.8-2.7s4.933.9 6.8 2.7c1.867 1.8 2.8 4.233 2.8 7.3zm39.1 31.2h41.2v11h-41.2v55c0 5.867.5 10.633 1.5 14.3 1 3.667 2.433 6.5 4.3 8.5s4.133 3.333 6.8 4c2.667.667 5.6 1 8.8 1 5.467 0 9.867-.633 13.2-1.9 3.333-1.267 5.933-2.433 7.8-3.5l3.2 10.8c-1.867 1.2-5.133 2.567-9.8 4.1-4.667 1.533-9.733 2.3-15.2 2.3-6.4 0-11.767-.833-16.1-2.5-4.333-1.667-7.8-4.2-10.4-7.6-2.6-3.4-4.433-7.633-5.5-12.7-1.067-5.067-1.6-11.067-1.6-18V46.4l13-2.4v32.8z"/>
  </g>
</svg>
